<svg width="455" height="401" viewBox="0 0 455 401" fill="none" xmlns="http://www.w3.org/2000/svg">
<g id="Group">
<g id="Layer 2">
<g id="Layer 1">
<g id="Group_2">
<g id="Group_3">
<path id="Vector" opacity="0.81" d="M450.016 270.482C450.016 271.579 448.204 272.47 445.981 272.47C443.757 272.47 441.933 271.579 441.933 270.482C441.933 269.385 443.744 268.494 445.981 268.494C448.217 268.494 450.016 269.385 450.016 270.482Z" fill="url(#paint0_linear_1_793)"/>
<path id="Vector_2" opacity="0.81" d="M448.691 270.237C448.691 270.971 447.467 271.579 445.968 271.579C444.469 271.579 443.245 270.981 443.245 270.237C443.245 269.493 444.456 268.895 445.968 268.895C447.48 268.895 448.691 269.493 448.691 270.237Z" fill="#3EFCFF"/>
<path id="Vector_3" d="M448.691 267.945C448.691 269.121 447.467 270.08 445.968 270.08C444.469 270.08 443.245 269.13 443.245 267.945V68.6414C443.245 68.6414 443.245 68.5631 443.245 68.5239C443.245 67.7796 444.456 67.1822 445.968 67.1822C447.48 67.1822 448.691 67.7796 448.691 68.5239C448.691 68.5631 448.691 68.6022 448.691 68.6414V267.936V267.945Z" fill="url(#paint1_linear_1_793)"/>
<path id="Vector_4" d="M447.58 267.72C447.58 268.415 446.855 268.983 445.968 268.983C445.081 268.983 444.356 268.415 444.356 267.72V44.922C444.356 44.922 444.356 44.873 444.356 44.8534C444.356 44.4127 445.081 44.0602 445.968 44.0602C446.855 44.0602 447.58 44.4127 447.58 44.8534C447.58 44.8828 447.58 44.9024 447.58 44.922V267.71V267.72Z" fill="url(#paint2_linear_1_793)"/>
</g>
<g id="Group_4">
<path id="Vector_5" opacity="0.81" d="M427.129 226.422C427.129 227.518 425.317 228.41 423.081 228.41C420.845 228.41 419.046 227.518 419.046 226.422C419.046 225.325 420.858 224.434 423.081 224.434C425.305 224.434 427.129 225.325 427.129 226.422Z" fill="url(#paint3_linear_1_793)"/>
<path id="Vector_6" opacity="0.81" d="M425.805 226.167C425.805 226.902 424.593 227.509 423.081 227.509C421.57 227.509 420.358 226.902 420.358 226.167C420.358 225.433 421.582 224.825 423.081 224.825C424.58 224.825 425.805 225.423 425.805 226.167Z" fill="#3EFCFF"/>
<path id="Vector_7" d="M425.805 223.885C425.805 225.06 424.593 226.02 423.081 226.02C421.582 226.02 420.358 225.07 420.358 223.885V24.5812C420.358 24.5812 420.358 24.5029 420.358 24.4637C420.358 23.7194 421.582 23.122 423.081 23.122C424.58 23.122 425.805 23.7194 425.805 24.4637C425.805 24.5029 425.805 24.5421 425.805 24.5812V223.875V223.885Z" fill="url(#paint4_linear_1_793)"/>
<path id="Vector_8" d="M424.693 223.66C424.693 224.355 423.968 224.923 423.081 224.923C422.194 224.923 421.47 224.355 421.47 223.66V0.861812C421.47 0.861812 421.47 0.812846 421.47 0.793259C421.47 0.35256 422.194 0 423.081 0C423.968 0 424.693 0.35256 424.693 0.793259C424.693 0.812846 424.693 0.842226 424.693 0.861812V223.65V223.66Z" fill="url(#paint5_linear_1_793)"/>
</g>
<g id="Group_5">
<path id="Vector_9" opacity="0.81" d="M8.08286 292.478C8.08286 293.574 6.27137 294.466 4.03516 294.466C1.79895 294.466 9.17046e-06 293.574 9.17046e-06 292.478C9.17046e-06 291.381 1.81144 290.49 4.03516 290.49C6.25888 290.49 8.08286 291.381 8.08286 292.478Z" fill="url(#paint6_linear_1_793)"/>
<path id="Vector_10" opacity="0.81" d="M6.75858 292.223C6.75858 292.957 5.54674 293.565 4.03512 293.565C2.52349 293.565 1.31169 292.957 1.31169 292.223C1.31169 291.488 2.53598 290.881 4.03512 290.881C5.53425 290.881 6.75858 291.479 6.75858 292.223Z" fill="#3EFCFF"/>
<path id="Vector_11" d="M6.75858 289.931C6.75858 291.107 5.54674 292.066 4.03512 292.066C2.53598 292.066 1.31169 291.116 1.31169 289.931V90.6274C1.31169 90.6274 1.31169 90.5491 1.31169 90.5099C1.31169 89.7656 2.53598 89.1682 4.03512 89.1682C5.53425 89.1682 6.75858 89.7656 6.75858 90.5099C6.75858 90.5491 6.75858 90.5882 6.75858 90.6274V289.922V289.931Z" fill="url(#paint7_linear_1_793)"/>
<path id="Vector_12" d="M5.64671 289.706C5.64671 290.401 4.92212 290.969 4.03513 290.969C3.14814 290.969 2.42359 290.401 2.42359 289.706V66.908C2.42359 66.908 2.42359 66.859 2.42359 66.8394C2.42359 66.3987 3.14814 66.0462 4.03513 66.0462C4.92212 66.0462 5.64671 66.3987 5.64671 66.8394C5.64671 66.859 5.64671 66.8884 5.64671 66.908V289.696V289.706Z" fill="url(#paint8_linear_1_793)"/>
</g>
<g id="Group_6">
<path id="Vector_13" d="M173.712 108.099C176.998 106.61 179.671 107.805 179.684 110.753L180.034 209.293C180.034 212.251 177.398 215.855 174.112 217.333L18.6518 287.689C15.3662 289.177 12.7052 287.982 12.6927 285.025L12.3304 186.494C12.3304 183.537 14.9664 179.933 18.252 178.454L173.7 108.099H173.712Z" fill="url(#paint9_linear_1_793)"/>
<g id="Group_7">
<path id="Vector_14" d="M32.3064 228.909L32.4563 269.512L28.8334 271.148L28.696 230.545L32.3064 228.909Z" fill="white"/>
<path id="Vector_15" d="M40.6391 235.833L40.7515 265.761L37.1286 267.397L37.0286 237.469L40.6391 235.833Z" fill="white"/>
<path id="Vector_16" d="M48.8968 224.913L49.0217 262.011L45.4113 263.646L45.2739 226.549L48.8968 224.913Z" fill="white"/>
<path id="Vector_17" d="M57.1421 210.978L57.3045 258.27L53.6941 259.905L53.5192 212.613L57.1421 210.978Z" fill="white"/>
<path id="Vector_18" d="M65.3123 179.365L65.5872 254.519L61.9893 256.144L61.7144 181L65.3123 179.365Z" fill="white"/>
<path id="Vector_19" d="M73.6701 192.008L73.8824 250.768L70.272 252.403L70.0596 193.643L73.6701 192.008Z" fill="white"/>
<path id="Vector_20" d="M81.9153 177.602L82.1651 247.017L78.5547 248.652L78.3049 179.237L81.9153 177.602Z" fill="white"/>
<path id="Vector_21" d="M90.173 168.112L90.4479 243.266L86.8374 244.902L86.5626 169.757L90.173 168.112Z" fill="white"/>
<path id="Vector_22" d="M98.5432 183.948L98.7431 239.515L95.1327 241.151L94.9203 185.583L98.5432 183.948Z" fill="white"/>
<path id="Vector_23" d="M106.751 162.364L107.026 235.764L103.403 237.4L103.141 164.009L106.751 162.364Z" fill="white"/>
<path id="Vector_24" d="M115.071 168.651L115.296 232.023L111.686 233.659L111.461 170.286L115.071 168.651Z" fill="white"/>
<path id="Vector_25" d="M123.329 153.109L123.604 228.263L119.981 229.898L119.706 154.754L123.329 153.109Z" fill="white"/>
<path id="Vector_26" d="M131.687 172.137L131.874 224.512L128.264 226.157L128.076 173.773L131.687 172.137Z" fill="white"/>
<path id="Vector_27" d="M139.919 153.736L140.157 220.771L136.546 222.406L136.296 155.371L139.919 153.736Z" fill="white"/>
<path id="Vector_28" d="M148.177 141.866L148.452 217.01L144.842 218.646L144.567 143.502L148.177 141.866Z" fill="white"/>
<path id="Vector_29" d="M156.535 158.495L156.735 213.269L153.124 214.895L152.924 160.131L156.535 158.495Z" fill="white"/>
<path id="Vector_30" d="M164.793 148.692L165.017 209.518L161.394 211.154L161.182 150.337L164.793 148.692Z" fill="white"/>
</g>
<path id="Vector_31" d="M174.237 114.21L174.262 119.733L163.218 124.728L163.206 119.204L174.237 114.21Z" fill="white"/>
</g>
<g id="Group_8">
<g id="Group_9" style="mix-blend-mode:soft-light">
<path id="Vector_32" d="M171.751 30.7804C173.937 29.7913 175.724 30.5846 175.736 32.553L175.961 92.7134C175.961 94.6819 174.2 97.091 172.001 98.0801L58.8536 149.289C56.6549 150.288 54.8809 149.485 54.8684 147.517L54.6435 87.3662C54.6435 85.388 56.405 82.9788 58.6038 81.9897L171.751 30.7804Z" fill="url(#paint10_linear_1_793)"/>
</g>
<path id="Vector_33" d="M169.352 38.1352L169.365 43.1396L159.358 47.6739L159.346 42.6597L169.352 38.1352Z" fill="white"/>
<path id="Vector_34" d="M144.617 49.9362C144.192 50.132 143.755 50.5434 143.667 51.0134L139.27 72.7448C138.545 74.6447 136.721 76.3586 134.86 77.191C133.648 77.7394 132.424 77.9255 131.474 77.5533L118.032 72.402C117.72 72.2845 117.307 72.3531 116.92 72.5294C116.295 72.8134 115.683 73.3814 115.446 74.0277L106.376 98.276C105.639 100.264 103.803 101.919 101.966 102.752C100.13 103.584 98.2933 103.584 97.5438 102.281L95.3825 98.5306C95.1327 98.0997 94.5205 98.1095 93.9084 98.3837C93.2962 98.6579 92.6841 99.2064 92.4342 99.8625L88.1242 111.409C87.7869 112.32 86.9374 113.084 86.1004 113.465C85.2509 113.847 84.4138 113.857 84.064 113.26L74.9443 84.6045C74.7194 83.9288 73.9324 83.9092 73.1453 84.2716C72.3083 84.6535 71.4713 85.4663 71.3339 86.3673L65.2249 131.652L152.687 91.3227L145.604 50.2104C145.541 49.7795 145.091 49.7501 144.642 49.9557L144.617 49.9362Z" fill="#00DA81"/>
<path id="Vector_35" d="M153.274 51.0624C152.849 51.2583 152.412 51.6696 152.325 52.1397L147.927 73.871C147.203 75.7709 145.379 77.475 143.517 78.3172C142.305 78.8656 141.081 79.0419 140.132 78.6698L126.702 73.5185C126.39 73.401 125.977 73.4695 125.578 73.6458C124.953 73.9298 124.341 74.4978 124.103 75.1442L115.034 99.3924C114.297 101.38 112.46 103.036 110.624 103.868C108.787 104.7 106.951 104.71 106.201 103.398L104.04 99.6471C103.79 99.2162 103.178 99.226 102.566 99.5002C101.954 99.7744 101.342 100.323 101.092 100.979L96.7817 112.525C96.4444 113.436 95.5949 114.2 94.7579 114.572C93.9084 114.954 93.0714 114.964 92.7216 114.357L83.6018 85.7014C83.3894 85.0256 82.5899 85.0061 81.8028 85.3684C80.9658 85.7503 80.1288 86.5632 79.9914 87.4642L73.8824 132.758L161.345 92.4294L154.261 51.317C154.199 50.8861 153.749 50.8567 153.287 51.0624H153.274Z" fill="white"/>
</g>
<g id="Group_10">
<path id="Vector_36" d="M396.172 152.492L384.941 135.207L269.707 82.5871V25.5312L354.046 64.3911L396.172 83.9582V152.492Z" fill="url(#paint11_linear_1_793)"/>
<path id="Vector_37" d="M307.061 58.2703L275.566 44.1385V40.6031L307.061 55.2344V58.2703Z" fill="url(#paint12_linear_1_793)"/>
<path id="Vector_38" d="M327.561 78.4641L275.566 55.1364V49.2996L327.561 73.4499V78.4641Z" fill="url(#paint13_linear_1_793)"/>
<path id="Vector_39" d="M327.561 88.9626L275.566 65.6349V59.798L327.561 83.9484V88.9626Z" fill="url(#paint14_linear_1_793)"/>
<path id="Vector_40" d="M327.561 99.461L275.566 76.1333V70.2965L327.561 94.4468V99.461Z" fill="url(#paint15_linear_1_793)"/>
</g>
<path id="Vector_41" d="M152.662 363.371C185.206 363.371 211.691 342.61 211.691 317.098C211.691 291.586 185.206 270.825 152.662 270.825C120.118 270.825 93.6335 291.586 93.6335 317.098C93.6335 342.61 120.118 363.371 152.662 363.371ZM152.662 271.089C185.018 271.089 211.353 291.724 211.353 317.098C211.353 342.473 185.031 363.107 152.662 363.107C120.293 363.107 93.9709 342.463 93.9709 317.098C93.9709 291.733 120.306 271.089 152.662 271.089Z" fill="white"/>
<path id="Vector_42" d="M358.781 399.734C326.037 401.174 295.992 390.254 276.016 372.176C276.116 372.107 276.203 372.039 276.303 371.98C296.204 389.99 326.137 400.87 358.768 399.44C414.661 396.972 457.586 359.327 454.463 315.502C452.402 286.592 430.789 262.118 400.282 249.505C400.382 249.426 400.482 249.358 400.569 249.279C407.94 252.335 414.786 256.076 420.97 260.404C440.434 274.037 453.264 293.486 454.838 315.482C457.986 359.474 414.886 397.266 358.768 399.734H358.781Z" fill="white"/>
<path id="Vector_43" d="M309.859 361.286C310.221 361.119 310.571 360.943 310.921 360.757C327.024 375.456 355.195 378.159 375.396 366.466C396.547 354.225 401.044 330.77 385.428 314.189C384.204 312.887 382.879 311.663 381.48 310.517C381.818 310.321 382.13 310.115 382.442 309.9C383.854 311.056 385.178 312.29 386.427 313.612C402.456 330.623 397.833 354.685 376.133 367.24C355.37 379.266 326.374 376.455 309.871 361.276L309.859 361.286Z" fill="url(#paint16_radial_1_793)"/>
<g id="Group_11">
<g id="Group_12" opacity="0.2">
<path id="Vector_44" opacity="0.09" d="M219.374 225.501L399.27 306.923C405.454 309.724 408.652 314.16 408.24 318.959C408.14 320.095 407.828 321.211 407.39 322.318C405.941 325.951 401.356 329.839 396.072 332.239L295.18 377.895C289.333 380.539 281.975 381.959 274.617 381.891C271.644 381.861 268.808 381.558 266.184 381.078C263.348 380.559 260.063 379.511 257.777 378.483L78.5672 297.374C72.3958 294.583 69.1851 290.157 69.5599 285.358C69.6599 284.026 70.0596 282.733 70.6343 281.47C72.1959 278.042 76.6309 274.38 81.6655 272.108L182.307 226.549C183.582 225.971 185.268 225.315 186.68 224.855C191.515 223.288 197.024 222.416 202.596 222.387C208.967 222.357 214.789 223.435 219.349 225.491L219.374 225.501Z" fill="black"/>
<path id="Vector_45" opacity="0.18" d="M218.924 226.118L398.82 307.54C404.979 310.331 407.828 314.757 407.016 319.448C406.828 320.535 406.403 321.583 405.929 322.651C404.492 325.892 399.17 330.025 394.41 332.18L294.73 377.288C288.909 379.922 281.513 381.303 274.23 381.166C271.269 381.107 268.458 380.745 265.859 380.245C263.323 379.756 259.6 378.492 257.552 377.562L79.0295 296.767C72.8955 293.986 70.0097 289.589 70.7592 284.907C70.9591 283.644 71.4838 282.43 72.096 281.196C73.6201 278.14 78.7297 274.262 83.2646 272.205L182.457 227.303C183.607 226.784 185.493 226.03 186.755 225.619C191.502 224.061 196.924 223.141 202.408 223.102C208.68 223.053 214.451 224.081 218.924 226.108V226.118Z" fill="black"/>
<path id="Vector_46" opacity="0.27" d="M218.474 226.725L398.371 308.147C404.517 310.928 407.028 315.345 405.791 319.928C405.516 320.966 404.979 321.946 404.467 322.974C403.068 325.814 396.984 330.201 392.749 332.111L294.28 376.681C288.471 379.315 281.038 380.637 273.83 380.451C270.869 380.363 268.096 379.942 265.535 379.413C263.286 378.953 259.126 377.474 257.314 376.651L79.4667 296.16C73.3577 293.398 70.7967 289.021 71.9336 284.457C72.2334 283.252 72.8705 282.116 73.5202 280.931C74.9818 278.248 80.7785 274.145 84.8136 272.323L182.557 228.077C183.582 227.616 185.656 226.774 186.78 226.392C191.44 224.835 196.774 223.885 202.171 223.817C208.342 223.738 214.052 224.727 218.462 226.725H218.474Z" fill="black"/>
<path id="Vector_47" opacity="0.36" d="M218.024 227.342L397.921 308.764C404.055 311.545 406.241 315.942 404.567 320.418C404.205 321.397 403.555 322.308 403.005 323.307C401.669 325.755 394.785 330.378 391.087 332.052L293.831 376.073C288.034 378.698 280.563 379.981 273.442 379.726C270.494 379.609 267.746 379.119 265.21 378.581C263.248 378.159 258.664 376.465 257.077 375.74L79.9165 295.563C73.8325 292.811 71.5838 288.462 73.1329 284.016C73.5326 282.87 74.2822 281.822 74.9693 280.667C76.356 278.356 82.8648 274.027 86.3878 272.44L182.682 228.85C183.582 228.449 185.855 227.509 186.83 227.176C191.402 225.628 196.649 224.639 201.959 224.551C208.03 224.443 213.689 225.403 218.012 227.362L218.024 227.342Z" fill="black"/>
<path id="Vector_48" opacity="0.45" d="M217.575 227.949L397.471 309.371C403.593 312.143 405.466 316.53 403.343 320.888C402.893 321.818 402.131 322.651 401.544 323.62C400.294 325.687 392.599 330.544 389.438 331.984L293.381 375.456C287.597 378.071 280.101 379.315 273.055 378.992C270.107 378.855 267.396 378.297 264.897 377.729C263.223 377.347 258.214 375.427 256.852 374.81L80.3787 294.946C74.3322 292.203 72.3709 287.885 74.3322 283.546C74.8194 282.469 75.6939 281.499 76.4185 280.383C77.6928 278.434 84.9511 273.9 87.9743 272.529L182.82 229.595C183.582 229.252 186.055 228.214 186.892 227.92C191.377 226.373 196.537 225.354 201.759 225.237C207.718 225.1 213.327 226.02 217.587 227.94L217.575 227.949Z" fill="black"/>
<path id="Vector_49" opacity="0.55" d="M217.125 228.557L397.021 309.978C403.118 312.74 404.704 317.118 402.131 321.368C401.594 322.24 400.957 323.121 400.095 323.944C399.445 325.785 390.425 330.711 387.789 331.915L292.944 374.839C287.172 377.444 279.639 378.649 272.68 378.257C269.745 378.091 267.059 377.474 264.585 376.876C263.198 376.543 257.764 374.389 256.627 373.88L80.8409 294.319C74.8194 291.596 73.1579 287.297 75.5315 283.076C76.1062 282.058 76.8557 281.039 77.8676 280.099C78.5797 278.365 87.0249 273.763 89.5484 272.627L182.945 230.349C183.582 230.065 186.243 228.929 186.942 228.684C191.34 227.146 196.412 226.089 201.546 225.952C207.405 225.795 212.965 226.666 217.137 228.557H217.125Z" fill="black"/>
<path id="Vector_50" opacity="0.64" d="M216.675 229.174L396.572 310.595C402.656 313.347 403.955 317.725 400.907 321.858C400.294 322.68 399.57 323.513 398.633 324.286C398.108 325.755 388.239 330.907 386.128 331.866L292.494 374.242C286.747 376.847 279.177 378.003 272.281 377.552C269.357 377.356 266.696 376.681 264.26 376.064C263.148 375.78 257.289 373.39 256.39 372.979L81.2906 293.731C75.2941 291.018 73.8949 286.739 76.7183 282.645C77.3804 281.685 78.2049 280.726 79.3168 279.844C79.8915 278.454 89.1112 273.665 91.1225 272.754L183.07 231.132C183.582 230.907 186.43 229.673 186.992 229.477C191.315 227.94 196.287 226.853 201.334 226.686C207.093 226.5 212.603 227.342 216.688 229.193L216.675 229.174Z" fill="black"/>
<path id="Vector_51" opacity="0.73" d="M216.225 229.781L396.122 311.202C402.193 313.954 403.23 318.322 399.682 322.328C398.995 323.101 398.183 323.875 397.171 324.6C396.784 325.697 386.053 331.073 384.466 331.788L292.044 373.615C286.31 376.211 278.702 377.327 271.893 376.808C268.97 376.583 266.359 375.848 263.935 375.202C263.111 374.986 256.827 372.352 256.152 372.039L81.7279 293.095C75.7688 290.392 74.632 286.122 77.8926 282.165C78.6297 281.264 79.5542 280.373 80.741 279.541C81.1657 278.503 91.1724 273.508 92.6841 272.822L183.182 231.867C183.569 231.69 186.617 230.359 187.03 230.212C191.265 228.674 196.149 227.558 201.109 227.372C206.768 227.156 212.215 227.959 216.238 229.771L216.225 229.781Z" fill="black"/>
<path id="Vector_52" opacity="0.82" d="M215.776 230.388L395.672 311.81C401.731 314.552 402.506 318.939 398.458 322.808C397.696 323.532 396.796 324.257 395.71 324.923C395.447 325.657 383.866 331.24 382.804 331.719L291.582 373.008C285.86 375.594 278.215 376.671 271.494 376.083C268.583 375.829 265.997 375.026 263.611 374.369C263.061 374.213 256.365 371.333 255.915 371.128L82.1777 292.497C76.2436 289.814 75.3566 285.544 79.0795 281.725C79.904 280.882 80.9159 280.05 82.1777 279.286C82.4651 278.591 93.2339 273.41 94.2458 272.95L183.294 232.64C183.544 232.523 186.792 231.093 187.067 230.995C191.215 229.467 196.012 228.312 200.884 228.096C206.444 227.851 211.84 228.615 215.776 230.398V230.388Z" fill="black"/>
<path id="Vector_53" opacity="0.91" d="M215.326 231.005L395.222 312.427C401.269 315.159 401.781 319.576 397.234 323.297C396.397 323.973 395.41 324.639 394.248 325.256C394.123 325.628 381.68 331.426 381.155 331.661L291.145 372.401C285.436 374.986 277.765 376.015 271.119 375.368C268.208 375.084 265.672 374.223 263.298 373.537C263.023 373.459 255.915 370.315 255.69 370.207L82.6399 291.89C76.7308 289.216 76.0936 284.937 80.2912 281.264C81.1907 280.481 82.3025 279.707 83.6393 279.012C83.7767 278.659 95.3325 273.283 95.8323 273.057L183.432 233.404C183.557 233.346 186.992 231.818 187.13 231.759C191.19 230.231 195.9 229.046 200.684 228.811C206.144 228.547 211.491 229.272 215.351 231.015L215.326 231.005Z" fill="black"/>
<path id="Vector_54" d="M262.961 372.685L83.0647 291.273C75.9563 288.051 76.8557 282.439 85.051 278.728L187.142 232.513C195.35 228.801 207.755 228.4 214.864 231.612L394.76 313.034C401.869 316.256 400.969 321.867 392.774 325.579L290.683 371.784C282.487 375.496 270.069 375.907 262.961 372.685Z" fill="black"/>
</g>
<path id="Vector_55" d="M262.961 372.558L83.0647 291.136C79.8915 289.706 78.3174 287.796 78.2674 285.789V278.806C78.3299 276.368 80.6161 280.598 85.051 278.6L187.142 232.396C195.35 228.684 207.755 228.273 214.864 231.495L394.76 312.906C397.134 313.984 398.845 309.43 399.47 310.869C399.67 311.349 399.545 317.744 399.557 318.244C399.632 320.741 397.321 323.385 392.774 325.442L290.683 371.657C282.487 375.368 270.069 375.77 262.961 372.558Z" fill="url(#paint17_linear_1_793)"/>
<path id="Vector_56" d="M262.961 365.702L83.0646 284.281C75.9562 281.068 76.8557 275.447 85.051 271.735L187.142 225.53C195.35 221.819 207.755 221.407 214.864 224.629L394.76 306.051C401.868 309.263 400.969 314.885 392.774 318.596L290.683 364.801C282.487 368.513 270.069 368.915 262.961 365.702Z" fill="url(#paint18_linear_1_793)"/>
<path id="Vector_57" d="M275.004 365.056C270.956 365.056 267.321 364.419 264.76 363.264L84.8636 281.852C83.7392 281.343 81.8653 280.275 81.8653 278.845C81.8653 277.337 83.7267 275.604 86.8499 274.184L188.941 227.979C192.726 226.265 197.786 225.286 202.821 225.286C206.868 225.286 210.504 225.922 213.065 227.078L392.961 308.499C394.085 309.009 395.959 310.076 395.959 311.506C395.959 312.936 394.098 314.748 390.975 316.168L288.884 362.373C285.098 364.086 280.039 365.066 275.004 365.066V365.056Z" fill="url(#paint19_linear_1_793)"/>
<path id="Vector_58" d="M392.774 317.431L290.683 363.636C282.487 367.348 270.069 367.759 262.961 364.537L83.0646 283.125C80.1163 281.793 78.5672 280.04 78.3174 278.189C77.9551 280.471 79.5042 282.684 83.0646 284.29L262.961 365.712C270.069 368.924 282.475 368.523 290.683 364.811L392.774 318.606C397.571 316.432 399.845 313.612 399.507 310.997C399.145 313.259 396.871 315.59 392.774 317.441V317.431Z" fill="white"/>
<path id="Vector_59" style="mix-blend-mode:color-dodge" d="M330.947 350.395C339.105 365.957 321.477 386.386 291.557 396.032C261.649 405.669 230.78 400.86 222.622 385.289C214.464 369.727 232.091 349.298 262.012 339.662C291.919 330.025 322.789 334.834 330.947 350.395Z" fill="url(#paint20_radial_1_793)"/>
<path id="Vector_60" style="mix-blend-mode:color-dodge" d="M225.57 243.364C230.33 254.225 215.176 268.141 191.727 274.468C168.278 280.794 145.404 277.122 140.631 266.261C135.872 255.4 151.026 241.474 174.474 235.157C197.936 228.831 220.81 232.503 225.57 243.364Z" fill="url(#paint21_radial_1_793)"/>
<path id="Vector_61" d="M294.93 335.715L148.852 269.6C145.928 268.278 146.291 265.967 149.676 264.439L204.52 239.613C207.893 238.085 213.002 237.919 215.938 239.241L362.029 305.356C364.952 306.678 364.59 308.989 361.204 310.517L306.361 335.343C302.988 336.871 297.878 337.037 294.955 335.715H294.93Z" fill="url(#paint22_linear_1_793)"/>
<path id="Vector_62" d="M207.705 242.492C208.892 241.954 210.816 241.954 212.003 242.492L221.36 246.723C222.547 247.262 222.559 248.133 221.372 248.672C220.186 249.211 218.262 249.201 217.075 248.672L207.718 244.432C206.531 243.893 206.519 243.021 207.705 242.492ZM223.734 249.749C224.92 249.211 226.844 249.22 228.031 249.749L232.466 251.757C233.653 252.296 233.665 253.167 232.466 253.706C231.279 254.244 229.355 254.244 228.169 253.706L223.734 251.698C222.534 251.16 222.534 250.288 223.721 249.749H223.734ZM234.84 254.773C236.027 254.235 237.95 254.244 239.137 254.773L243.572 256.781C244.759 257.32 244.771 258.191 243.585 258.73C242.398 259.268 240.474 259.259 239.287 258.73L234.852 256.722C233.665 256.184 233.653 255.312 234.84 254.773ZM245.946 259.797C247.133 259.259 249.057 259.268 250.243 259.797L254.678 261.805C255.865 262.344 255.878 263.215 254.691 263.754C253.504 264.292 251.58 264.283 250.393 263.754L245.958 261.746C244.771 261.208 244.759 260.336 245.958 259.797H245.946ZM257.052 264.821C258.239 264.292 260.163 264.292 261.349 264.821L265.784 266.829C266.971 267.368 266.984 268.239 265.797 268.778C264.61 269.316 262.686 269.316 261.499 268.778L257.064 266.77C255.878 266.231 255.865 265.36 257.064 264.821H257.052ZM268.146 269.845C269.332 269.307 271.256 269.316 272.443 269.845L276.878 271.853C278.065 272.391 278.077 273.263 276.89 273.792C275.704 274.331 273.78 274.331 272.593 273.792L268.158 271.784C266.971 271.246 266.959 270.374 268.146 269.835V269.845ZM279.252 274.869C280.438 274.331 282.362 274.34 283.549 274.869L287.984 276.877C289.171 277.415 289.183 278.287 287.984 278.826C286.797 279.355 284.873 279.355 283.687 278.826L279.252 276.818C278.065 276.279 278.052 275.408 279.239 274.879L279.252 274.869ZM290.358 279.893C291.545 279.364 293.468 279.364 294.655 279.893L299.09 281.901C300.277 282.439 300.289 283.311 299.09 283.84C297.903 284.379 295.979 284.369 294.793 283.84L290.358 281.832C289.171 281.294 289.158 280.422 290.345 279.883L290.358 279.893ZM301.464 284.917C302.651 284.388 304.575 284.388 305.761 284.917L310.196 286.925C311.383 287.463 311.396 288.335 310.209 288.864C309.022 289.402 307.098 289.393 305.911 288.864L301.476 286.856C300.277 286.318 300.277 285.446 301.464 284.907V284.917ZM312.57 289.941C313.757 289.402 315.681 289.412 316.867 289.941L321.302 291.949C322.489 292.487 322.502 293.359 321.302 293.888C320.116 294.426 318.192 294.417 317.005 293.888L312.57 291.88C311.383 291.342 311.371 290.47 312.557 289.931L312.57 289.941ZM323.676 294.965C324.863 294.426 326.787 294.436 327.974 294.965L332.408 296.973C333.595 297.511 333.608 298.383 332.421 298.922C331.234 299.46 329.31 299.45 328.123 298.922L323.689 296.914C322.502 296.375 322.489 295.504 323.689 294.965H323.676ZM334.782 299.989C335.956 299.45 337.88 299.46 339.08 299.989L343.515 301.997C344.714 302.535 344.714 303.407 343.527 303.946C342.34 304.484 340.416 304.474 339.23 303.946L334.795 301.938C333.608 301.399 333.595 300.528 334.795 299.999L334.782 299.989ZM346.113 305.111C347.3 304.572 349.224 304.582 350.411 305.111L354.846 307.119C356.032 307.657 356.045 308.529 354.858 309.067C353.671 309.606 351.747 309.596 350.561 309.067L346.126 307.06C344.926 306.521 344.926 305.65 346.113 305.111ZM197.749 247.007L201.559 245.284C202.908 244.676 205.094 244.676 206.456 245.284L210.291 247.017C211.641 247.634 211.653 248.623 210.304 249.23L206.494 250.954C205.144 251.561 202.958 251.561 201.596 250.954L197.761 249.22C196.412 248.604 196.399 247.614 197.749 247.007ZM212.702 255.988L208.867 254.244C207.505 253.637 207.505 252.638 208.855 252.031L212.665 250.308C214.014 249.7 216.2 249.7 217.55 250.308L221.385 252.041C222.734 252.648 222.747 253.647 221.397 254.254L217.575 255.978C216.225 256.585 214.039 256.585 212.69 255.978L212.702 255.988ZM219.948 257.055L223.759 255.332C225.108 254.724 227.294 254.724 228.656 255.332L232.491 257.065C233.84 257.672 233.853 258.671 232.504 259.278L228.681 261.002C227.332 261.609 225.145 261.609 223.796 261.002L219.961 259.268C218.612 258.651 218.599 257.662 219.948 257.055ZM231.054 262.079L234.865 260.356C236.214 259.748 238.4 259.748 239.762 260.356L243.597 262.099C244.946 262.706 244.959 263.705 243.597 264.312L239.787 266.036C238.438 266.643 236.251 266.643 234.89 266.036L231.054 264.302C229.693 263.685 229.693 262.696 231.042 262.089L231.054 262.079ZM254.716 269.336L250.905 271.06C249.556 271.667 247.37 271.667 246.021 271.06L242.173 269.316C240.824 268.699 240.811 267.71 242.16 267.103L245.971 265.379C247.32 264.772 249.506 264.772 250.868 265.379L254.703 267.123C256.052 267.74 256.065 268.729 254.716 269.336ZM265.822 274.36L262.012 276.084C260.662 276.691 258.476 276.691 257.114 276.084L253.279 274.35C251.917 273.743 251.917 272.744 253.267 272.137L257.077 270.413C258.426 269.806 260.612 269.806 261.974 270.413L265.809 272.147C267.159 272.764 267.171 273.753 265.822 274.36ZM276.928 279.384L273.118 281.108C271.768 281.715 269.582 281.715 268.22 281.108L264.385 279.374C263.036 278.757 263.023 277.768 264.373 277.161L268.183 275.437C269.532 274.83 271.718 274.83 273.068 275.437L276.903 277.171C278.252 277.788 278.265 278.777 276.915 279.384H276.928ZM288.034 284.408L284.224 286.132C282.875 286.739 280.688 286.739 279.327 286.132L275.491 284.388C274.142 283.771 274.13 282.782 275.479 282.175L279.302 280.451C280.651 279.844 282.837 279.844 284.186 280.451L288.022 282.195C289.371 282.802 289.383 283.801 288.034 284.408ZM299.14 289.432L295.317 291.155C293.968 291.763 291.782 291.763 290.433 291.155L286.597 289.412C285.248 288.805 285.236 287.806 286.585 287.199L290.395 285.466C291.744 284.858 293.931 284.858 295.28 285.466L299.115 287.199C300.464 287.816 300.477 288.805 299.128 289.412L299.14 289.432ZM310.246 294.456L306.423 296.179C305.074 296.787 302.888 296.787 301.539 296.179L297.703 294.436C296.354 293.829 296.342 292.83 297.691 292.223L301.501 290.49C302.851 289.882 305.037 289.882 306.398 290.49L310.234 292.223C311.583 292.84 311.595 293.829 310.246 294.436V294.456ZM308.785 297.247L312.595 295.523C313.944 294.916 316.13 294.916 317.492 295.523L321.327 297.257C322.677 297.874 322.689 298.863 321.34 299.47L317.517 301.194C316.168 301.801 313.982 301.801 312.632 301.194L308.797 299.46C307.448 298.843 307.435 297.854 308.785 297.247ZM332.446 304.504L328.636 306.227C327.286 306.835 325.1 306.835 323.751 306.227L319.916 304.494C318.566 303.877 318.554 302.888 319.903 302.281L323.713 300.557C325.063 299.95 327.249 299.95 328.611 300.557L332.446 302.291C333.795 302.908 333.808 303.897 332.458 304.504H332.446ZM348.699 311.868L344.889 313.592C343.54 314.199 341.353 314.199 340.004 313.592L331.234 309.626C329.885 309.009 329.872 308.02 331.222 307.412L335.032 305.689C336.381 305.082 338.567 305.082 339.929 305.689L348.699 309.655C350.048 310.272 350.061 311.261 348.712 311.868H348.699ZM187.492 251.669L191.302 249.945C192.651 249.338 194.838 249.338 196.199 249.945L204.957 253.911C206.306 254.528 206.319 255.518 204.969 256.125L201.147 257.848C199.797 258.456 197.611 258.456 196.262 257.848L187.492 253.882C186.143 253.265 186.13 252.276 187.479 251.669H187.492ZM203.52 258.926L207.331 257.202C208.68 256.595 210.866 256.595 212.228 257.202L216.063 258.945C217.425 259.552 217.425 260.551 216.076 261.159L212.253 262.882C210.903 263.489 208.717 263.489 207.368 262.882L203.533 261.149C202.184 260.532 202.171 259.543 203.52 258.935V258.926ZM214.639 266.163C213.29 265.546 213.277 264.557 214.626 263.95L218.437 262.226C219.786 261.619 221.972 261.619 223.334 262.226L227.169 263.969C228.518 264.576 228.531 265.575 227.169 266.183L223.359 267.906C222.01 268.513 219.823 268.513 218.474 267.906L214.639 266.163ZM225.732 271.187C224.383 270.57 224.371 269.581 225.72 268.974L229.53 267.25C230.879 266.643 233.066 266.643 234.427 267.25L238.263 268.983C239.612 269.6 239.624 270.59 238.275 271.197L234.465 272.92C233.116 273.528 230.929 273.528 229.58 272.92L225.732 271.187ZM245.521 272.274L249.356 274.007C250.706 274.624 250.718 275.613 249.369 276.221L245.559 277.944C244.209 278.551 242.023 278.551 240.661 277.944L236.826 276.211C235.477 275.594 235.464 274.605 236.826 273.998L240.636 272.264C241.986 271.657 244.172 271.657 245.521 272.264V272.274ZM256.39 277.19L260.7 279.139C261.924 279.697 261.937 280.589 260.712 281.137L256.427 283.076C255.215 283.624 253.229 283.624 252.005 283.076L247.695 281.117C246.47 280.569 246.47 279.668 247.682 279.12L251.967 277.18C253.179 276.632 255.165 276.632 256.39 277.18V277.19ZM267.496 282.214L271.806 284.163C273.03 284.721 273.043 285.612 271.818 286.161L267.533 288.1C266.322 288.648 264.335 288.648 263.111 288.1L258.801 286.151C257.577 285.593 257.564 284.702 258.788 284.153L263.073 282.214C264.285 281.666 266.272 281.666 267.496 282.214ZM278.602 287.238L282.912 289.187C284.136 289.745 284.136 290.636 282.912 291.185L278.627 293.124C277.415 293.672 275.429 293.672 274.205 293.124L269.895 291.175C268.67 290.627 268.658 289.726 269.882 289.177L274.167 287.238C275.379 286.69 277.365 286.69 278.589 287.238H278.602ZM289.708 292.262L294.018 294.211C295.242 294.769 295.242 295.66 294.031 296.209L289.746 298.148C288.521 298.696 286.547 298.696 285.323 298.148L281.013 296.199C279.789 295.641 279.776 294.75 281.001 294.201L285.286 292.262C286.497 291.714 288.484 291.714 289.708 292.262ZM300.814 297.286L305.124 299.235C306.348 299.783 306.348 300.684 305.137 301.233L300.852 303.172C299.64 303.72 297.654 303.72 296.429 303.172L292.119 301.223C290.895 300.665 290.882 299.774 292.107 299.225L296.392 297.286C297.616 296.738 299.59 296.738 300.814 297.286ZM307.535 308.196L303.225 306.247C302.001 305.699 302.001 304.798 303.225 304.249L307.51 302.31C308.722 301.762 310.708 301.762 311.933 302.31L316.243 304.259C317.467 304.807 317.467 305.708 316.255 306.257L311.97 308.196C310.758 308.744 308.772 308.744 307.548 308.196H307.535ZM318.629 313.22L314.319 311.271C313.095 310.723 313.095 309.822 314.306 309.273L318.591 307.334C319.803 306.786 321.79 306.786 323.014 307.334L327.324 309.283C328.548 309.831 328.548 310.732 327.324 311.281L323.039 313.22C321.827 313.768 319.841 313.768 318.616 313.22H318.629ZM338.667 316.412L334.382 318.352C333.158 318.9 331.184 318.9 329.96 318.352L325.65 316.403C324.426 315.854 324.413 314.953 325.637 314.405L329.922 312.466C331.134 311.917 333.121 311.917 334.345 312.466L338.655 314.415C339.879 314.973 339.879 315.864 338.667 316.412ZM176.986 256.419L181.271 254.48C182.482 253.931 184.469 253.931 185.693 254.48L199.61 260.777C200.834 261.325 200.847 262.226 199.622 262.774L195.337 264.714C194.113 265.262 192.139 265.262 190.915 264.714L176.998 258.416C175.774 257.868 175.761 256.967 176.998 256.419H176.986ZM197.686 265.791L201.971 263.852C203.183 263.303 205.169 263.303 206.394 263.852L210.704 265.801C211.928 266.359 211.928 267.25 210.704 267.798L206.419 269.737C205.207 270.286 203.22 270.286 201.996 269.737L197.686 267.789C196.462 267.23 196.449 266.339 197.674 265.791H197.686ZM208.792 270.815L213.077 268.876C214.289 268.327 216.275 268.327 217.5 268.876L221.81 270.825C223.034 271.373 223.034 272.274 221.822 272.822L217.537 274.761C216.325 275.31 214.339 275.31 213.115 274.761L208.805 272.813C207.58 272.254 207.58 271.363 208.805 270.815H208.792ZM219.898 275.839L224.183 273.9C225.395 273.351 227.381 273.351 228.606 273.9L232.916 275.849C234.14 276.407 234.14 277.298 232.916 277.846L228.631 279.785C227.419 280.334 225.433 280.334 224.208 279.785L219.898 277.837C218.674 277.288 218.674 276.387 219.886 275.839H219.898ZM235.327 284.809L231.017 282.861C229.793 282.312 229.793 281.411 231.004 280.863L235.289 278.924C236.514 278.375 238.488 278.375 239.712 278.924L244.022 280.873C245.246 281.431 245.246 282.322 244.022 282.87L239.737 284.809C238.525 285.358 236.539 285.358 235.314 284.809H235.327ZM246.433 289.833L242.123 287.885C240.899 287.336 240.899 286.435 242.111 285.887L246.396 283.948C247.607 283.399 249.594 283.399 250.818 283.948L255.128 285.896C256.352 286.455 256.365 287.346 255.141 287.894L250.855 289.833C249.644 290.382 247.657 290.382 246.433 289.833ZM257.539 294.857L253.229 292.909C252.005 292.35 251.992 291.459 253.217 290.911L257.502 288.972C258.713 288.423 260.7 288.423 261.924 288.972L266.234 290.92C267.458 291.479 267.471 292.37 266.247 292.918L261.962 294.857C260.75 295.406 258.763 295.406 257.539 294.857ZM268.645 299.881L264.335 297.932C263.111 297.374 263.098 296.483 264.323 295.935L268.608 293.996C269.82 293.447 271.806 293.447 273.03 293.996L277.34 295.944C278.564 296.493 278.565 297.394 277.353 297.942L273.068 299.881C271.856 300.43 269.87 300.43 268.645 299.881ZM279.751 304.905L275.441 302.956C274.217 302.408 274.205 301.507 275.429 300.959L279.714 299.02C280.926 298.471 282.912 298.471 284.136 299.02L288.446 300.968C289.671 301.527 289.671 302.418 288.459 302.966L284.174 304.905C282.962 305.454 280.976 305.454 279.751 304.905ZM290.857 309.929L286.547 307.98C285.323 307.432 285.323 306.531 286.535 305.983L290.82 304.044C292.044 303.495 294.018 303.495 295.242 304.044L299.552 305.992C300.777 306.551 300.777 307.442 299.565 307.99L295.28 309.929C294.068 310.478 292.082 310.478 290.857 309.929ZM297.629 310.997L301.914 309.058C303.125 308.509 305.112 308.509 306.336 309.058L310.646 311.016C311.87 311.565 311.883 312.466 310.659 313.014L306.373 314.953C305.162 315.502 303.175 315.502 301.951 314.953L297.641 313.004C296.417 312.446 296.417 311.555 297.629 311.007V310.997ZM328.411 321.055L324.126 322.994C322.901 323.542 320.928 323.542 319.703 322.994L308.747 318.028C307.523 317.48 307.523 316.579 308.735 316.031L313.02 314.091C314.231 313.543 316.218 313.543 317.442 314.091L328.411 319.057C329.635 319.605 329.635 320.506 328.411 321.055ZM166.766 261.041L170.477 259.366C171.851 258.749 174.087 258.749 175.474 259.366L195.225 268.298C196.612 268.925 196.612 269.933 195.238 270.56L191.527 272.235C190.153 272.862 187.917 272.852 186.53 272.235L166.779 263.303C165.392 262.677 165.392 261.668 166.766 261.041ZM193.876 273.312L197.586 271.637C198.96 271.011 201.197 271.02 202.583 271.637L206.319 273.322C207.705 273.949 207.705 274.957 206.331 275.584L202.621 277.259C201.247 277.876 199.01 277.876 197.624 277.259L193.888 275.574C192.502 274.948 192.502 273.939 193.876 273.312ZM204.982 278.336L208.692 276.661C210.066 276.044 212.303 276.044 213.689 276.661L217.425 278.356C218.811 278.982 218.811 279.991 217.437 280.618L213.727 282.293C212.353 282.919 210.116 282.91 208.73 282.293L204.994 280.598C203.608 279.972 203.608 278.963 204.982 278.336ZM216.088 283.36L219.798 281.676C221.173 281.059 223.409 281.059 224.795 281.676L228.531 283.37C229.918 283.997 229.918 285.005 228.543 285.632L224.833 287.307C223.459 287.924 221.223 287.924 219.836 287.307L216.1 285.612C214.714 284.986 214.714 283.977 216.1 283.36H216.088ZM227.182 288.384L230.892 286.7C232.266 286.083 234.502 286.083 235.889 286.7L239.624 288.394C241.011 289.021 241.011 290.029 239.637 290.656L235.927 292.331C234.552 292.957 232.316 292.948 230.929 292.331L227.194 290.636C225.807 290.01 225.807 289.001 227.182 288.374V288.384ZM238.288 293.408L241.998 291.733C243.372 291.116 245.608 291.116 246.995 291.733L250.731 293.418C252.117 294.045 252.117 295.053 250.743 295.68L247.033 297.364C245.658 297.981 243.422 297.981 242.036 297.364L238.3 295.67C236.913 295.043 236.913 294.035 238.288 293.408ZM249.394 298.432L253.104 296.748C254.478 296.131 256.715 296.131 258.101 296.748L261.837 298.442C263.211 299.068 263.223 300.077 261.849 300.704L258.139 302.379C256.765 302.996 254.528 302.996 253.142 302.379L249.406 300.694C248.02 300.067 248.02 299.059 249.394 298.432ZM260.5 303.456L264.21 301.781C265.584 301.164 267.821 301.164 269.207 301.781L272.943 303.476C274.329 304.102 274.329 305.111 272.955 305.728L269.245 307.412C267.871 308.029 265.634 308.029 264.248 307.412L260.512 305.718C259.126 305.091 259.126 304.083 260.5 303.456ZM271.606 308.48L275.316 306.805C276.691 306.188 278.927 306.188 280.313 306.805L284.049 308.499C285.436 309.126 285.436 310.135 284.061 310.762L280.351 312.436C278.977 313.053 276.741 313.053 275.354 312.436L271.619 310.742C270.232 310.115 270.232 309.107 271.606 308.49V308.48ZM282.712 313.504L286.422 311.819C287.797 311.202 290.033 311.202 291.42 311.819L295.155 313.514C296.542 314.14 296.542 315.149 295.167 315.776L291.457 317.451C290.083 318.068 287.847 318.068 286.46 317.451L282.725 315.756C281.338 315.13 281.338 314.121 282.712 313.494V313.504ZM293.818 318.528L297.529 316.843C298.903 316.226 301.139 316.226 302.526 316.843L306.261 318.538C307.648 319.164 307.648 320.173 306.274 320.8L302.563 322.484C301.189 323.101 298.953 323.101 297.566 322.484L293.831 320.79C292.444 320.163 292.444 319.155 293.818 318.528ZM317.617 325.941L313.907 327.616C312.532 328.233 310.296 328.233 308.91 327.616L305.174 325.922C303.787 325.295 303.787 324.286 305.162 323.669L308.872 321.985C310.246 321.368 312.482 321.368 313.869 321.985L317.605 323.679C318.991 324.306 318.991 325.315 317.617 325.941ZM173.887 270.198L170.177 271.872C168.803 272.489 166.567 272.489 165.18 271.872L156.522 267.955C155.136 267.328 155.136 266.32 156.51 265.693L160.22 264.018C161.594 263.401 163.831 263.401 165.217 264.018L173.887 267.945C175.274 268.572 175.274 269.581 173.9 270.208L173.887 270.198ZM184.981 275.222L181.271 276.906C179.896 277.523 177.66 277.523 176.273 276.906L172.538 275.212C171.151 274.585 171.151 273.576 172.526 272.95L176.236 271.275C177.61 270.648 179.846 270.658 181.233 271.275L184.968 272.969C186.355 273.596 186.355 274.605 184.981 275.232V275.222ZM196.087 280.246L192.377 281.93C191.002 282.547 188.766 282.547 187.38 281.93L183.644 280.246C182.257 279.619 182.257 278.61 183.632 277.983L187.342 276.299C188.716 275.682 190.952 275.682 192.339 276.299L196.075 277.993C197.461 278.62 197.461 279.629 196.075 280.256L196.087 280.246ZM273.792 315.414L270.082 317.088C268.708 317.705 266.471 317.705 265.085 317.088L194.738 285.25C193.351 284.623 193.351 283.615 194.725 282.988L198.436 281.313C199.81 280.686 202.046 280.696 203.433 281.313L273.78 313.151C275.166 313.778 275.166 314.787 273.792 315.414ZM284.898 320.438L281.188 322.122C279.814 322.739 277.578 322.739 276.191 322.122L272.456 320.428C271.069 319.801 271.069 318.792 272.443 318.165L276.153 316.491C277.528 315.864 279.764 315.874 281.151 316.491L284.886 318.185C286.273 318.812 286.273 319.821 284.898 320.447V320.438ZM296.004 325.462L292.294 327.136C290.92 327.753 288.684 327.753 287.297 327.136L283.562 325.442C282.175 324.815 282.175 323.806 283.549 323.18L287.259 321.505C288.634 320.888 290.87 320.888 292.257 321.505L295.992 323.199C297.379 323.826 297.379 324.835 296.004 325.462ZM307.335 330.583L303.625 332.268C302.251 332.885 300.015 332.885 298.628 332.268L294.893 330.574C293.506 329.947 293.506 328.938 294.88 328.321L298.59 326.647C299.965 326.03 302.201 326.03 303.588 326.647L307.323 328.341C308.71 328.968 308.71 329.976 307.335 330.603V330.583Z" fill="url(#paint23_linear_1_793)"/>
<g id="Group_13">
<path id="Vector_63" d="M391.912 304.964L218.574 226.471C211.865 223.435 206.419 215.287 206.419 208.275V101.684C206.419 94.6721 211.865 91.4501 218.574 94.486L391.912 172.979C398.62 176.015 404.055 184.163 404.055 191.175V297.766C404.055 304.778 398.608 308 391.912 304.964Z" fill="url(#paint24_linear_1_793)"/>
<path id="Vector_64" d="M393.486 299.49L222.01 221.838C216.613 219.145 213.265 213.769 213.265 208.265V101.155C213.265 99.8527 215.076 99.0399 216.513 99.696C216.688 99.7744 216.813 99.8331 216.888 99.8723L388.501 177.612C394.935 180.52 397.246 185.681 397.246 191.175V298.03C397.246 299.431 395.322 300.302 393.773 299.617C393.648 299.568 393.561 299.519 393.486 299.49Z" fill="url(#paint25_linear_1_793)"/>
<g id="Vector_65" style="mix-blend-mode:multiply">
<path d="M397.246 191.175V298.03C397.246 299.431 395.322 300.302 393.773 299.617C393.648 299.568 393.561 299.519 393.486 299.49L222.01 221.838C216.613 219.145 213.265 213.769 213.265 208.265V101.155C213.265 99.8527 215.076 99.0399 216.513 99.696C216.688 99.7744 216.813 99.8331 216.888 99.8723L388.501 177.612C394.935 180.52 397.246 185.681 397.246 191.175ZM395.884 191.175C395.884 187.072 394.485 181.539 387.827 178.532L215.826 100.626C215.701 100.568 215.563 100.538 215.426 100.538C215.051 100.538 214.639 100.773 214.639 101.155V208.265C214.639 213.504 217.824 218.479 222.697 220.908L394.46 298.677C394.61 298.745 394.773 298.785 394.935 298.785C395.397 298.785 395.897 298.491 395.897 298.03V191.175H395.884Z" fill="#BCBEC0"/>
</g>
<path id="Vector_66" d="M395.36 171.54L222.035 93.0464C219.374 91.8418 216.925 91.6263 214.926 92.2237C214.676 92.3021 211.291 93.7123 211.041 93.82C213.115 93.0366 215.738 93.1835 218.599 94.4762L391.912 172.979C398.62 176.015 404.055 184.163 404.055 191.175V297.766C404.055 302.144 401.931 305.042 398.708 305.875C398.97 305.885 399.295 305.806 399.77 305.591C399.92 305.522 403.605 303.897 403.742 303.818C406.054 302.555 407.49 299.94 407.49 296.346V189.755C407.49 182.743 402.056 174.595 395.335 171.559L395.36 171.54Z" fill="url(#paint26_linear_1_793)"/>
<path id="Vector_67" style="mix-blend-mode:screen" d="M392.499 172.744L219.161 94.2509C216.413 93.0072 213.877 92.8309 211.84 93.5164C213.577 93.301 215.576 93.634 217.7 94.5937L391.037 173.087C397.746 176.123 403.193 184.271 403.193 191.283V297.874C403.193 302.007 401.294 304.817 398.358 305.806C402.106 305.336 404.654 302.32 404.654 297.531V190.94C404.654 183.928 399.207 175.78 392.511 172.744H392.499Z" fill="url(#paint27_radial_1_793)"/>
<path id="Vector_68" style="mix-blend-mode:color-dodge" d="M407.028 190.343C402.593 191.773 396.759 188.678 394.01 183.439C391.262 178.199 392.636 172.784 397.071 171.354C401.506 169.924 407.34 173.009 410.089 178.258C412.837 183.498 411.463 188.913 407.028 190.343Z" fill="url(#paint28_radial_1_793)"/>
</g>
</g>
<g id="Group_14">
<g id="Group_15">
<g id="Group_16">
<path id="Vector_69" d="M365.502 263.783L192.114 181.607V54.3138L365.502 136.49V263.783Z" fill="url(#paint29_linear_1_793)"/>
<path id="Vector_70" style="mix-blend-mode:multiply" d="M278.814 216.54L195.712 177.161V74.5566L278.814 113.945V216.54Z" fill="url(#paint30_linear_1_793)"/>
<path id="Vector_71" style="mix-blend-mode:multiply" d="M365.502 147.145L192.114 64.9787V54.3138L365.502 136.49V147.145Z" fill="url(#paint31_linear_1_793)"/>
<path id="Vector_72" d="M327.586 144.873L286.073 125.198V121.114L327.586 140.789V144.873Z" fill="url(#paint32_linear_1_793)"/>
<g id="Group_17">
<path id="Vector_73" d="M327.586 197.384L317.567 192.635V188.551L327.586 193.301V197.384Z" fill="url(#paint33_linear_1_793)"/>
<path id="Vector_74" d="M360.367 212.917L350.348 208.167V204.083L360.367 208.833V212.917Z" fill="url(#paint34_linear_1_793)"/>
</g>
<g id="Group_18">
<path id="Vector_75" d="M316.218 202.869L306.186 198.119V194.035L316.218 198.785V202.869Z" fill="url(#paint35_linear_1_793)"/>
<path id="Vector_76" d="M348.999 218.411L338.967 213.651V209.567L348.999 214.317V218.411Z" fill="url(#paint36_linear_1_793)"/>
</g>
<g id="Group_19">
<path id="Vector_77" d="M304.837 208.353L283.437 198.217V194.133L304.837 204.269V208.353Z" fill="url(#paint37_linear_1_793)"/>
<path id="Vector_78" d="M337.618 223.895L327.586 219.135V215.052L337.618 219.811V223.895Z" fill="url(#paint38_linear_1_793)"/>
</g>
<g id="Group_20">
<path id="Vector_79" d="M312.657 222.945L283.437 209.087V205.004L312.657 218.861V222.945Z" fill="url(#paint39_linear_1_793)"/>
<path id="Vector_80" d="M326.237 229.379L316.218 224.629V220.546L326.237 225.295V229.379Z" fill="url(#paint40_linear_1_793)"/>
<path id="Vector_81" d="M342.628 237.145L332.608 232.396V228.312L342.628 233.062V237.145Z" fill="url(#paint41_linear_1_793)"/>
</g>
<path id="Vector_82" d="M360.367 168.044L299.053 138.977V137.185L360.367 166.251V168.044Z" fill="url(#paint42_linear_1_793)"/>
<path id="Vector_83" d="M360.367 178.356L299.053 149.299V147.507L360.367 176.564V178.356Z" fill="url(#paint43_linear_1_793)"/>
<path id="Vector_84" d="M360.367 188.678L299.053 159.621V157.829L360.367 186.886V188.678Z" fill="url(#paint44_linear_1_793)"/>
<path id="Vector_85" d="M360.367 199L299.053 169.934V168.142L360.367 197.208V199Z" fill="url(#paint45_linear_1_793)"/>
</g>
<g id="Group_21">
<path id="Vector_86" d="M202.134 66.3693L197.461 64.1561C196.499 63.6958 195.712 62.4422 195.712 61.3552C195.712 60.2681 196.499 59.7589 197.461 60.2191L202.134 62.4324C203.095 62.8927 203.883 64.1463 203.883 65.2333C203.883 66.3204 203.095 66.8296 202.134 66.3791V66.3693Z" fill="url(#paint46_linear_1_793)"/>
<path id="Vector_87" d="M213.302 71.6577L208.63 69.4444C207.668 68.9842 206.881 67.7306 206.881 66.6436C206.881 65.5565 207.668 65.0472 208.63 65.5075L213.302 67.7208C214.264 68.1811 215.051 69.4347 215.051 70.5217C215.051 71.6088 214.264 72.118 213.302 71.6675V71.6577Z" fill="url(#paint47_linear_1_793)"/>
<path id="Vector_88" d="M224.121 76.7894L219.449 74.5762C218.487 74.1257 217.7 72.8623 217.7 71.7753C217.7 70.6882 218.487 70.1789 219.449 70.6294L224.121 72.8427C225.083 73.2932 225.87 74.5566 225.87 75.6436C225.87 76.7307 225.083 77.2399 224.121 76.7894Z" fill="url(#paint48_linear_1_793)"/>
</g>
</g>
<path id="Vector_89" d="M221.785 97.042L199.797 86.6219V175.359L221.785 185.779V97.042Z" fill="url(#paint49_linear_1_793)"/>
<path id="Vector_90" opacity="0.4" d="M247.857 137.635L225.87 127.215V187.718L247.857 198.139V137.635Z" fill="white"/>
<path id="Vector_91" d="M274.904 176.231L252.929 165.811V200.538L274.904 210.958V176.231Z" fill="url(#paint50_linear_1_793)"/>
</g>
<path class="setting" d="M297.878 211.506V193.751L306.224 197.482C307.161 193.859 308.722 190.754 310.796 188.247L304.687 179.267L317.005 172.157L323.151 181.196C326.449 180.608 330.085 180.687 333.958 181.48V172.94L351.298 180.687V189.227C355.17 191.9 358.806 195.073 362.104 198.609L368.25 195.063L380.568 213.181L374.459 216.707C376.533 221.074 378.095 225.56 379.032 230.026L387.377 233.757V251.512L379.032 247.781C378.107 251.336 376.608 254.382 374.584 256.859L380.556 265.654L368.238 272.754L362.304 264.018C358.943 264.645 355.245 264.586 351.285 263.783V272.323L333.945 264.567V256.027C329.997 253.304 326.287 250.053 322.926 246.42L316.98 249.847L304.662 231.73L310.634 228.282C308.622 224.003 307.111 219.596 306.186 215.228L297.841 211.497L297.878 211.506ZM342.628 242.953C353.584 247.849 362.466 242.728 362.466 231.504C362.466 220.281 353.584 207.217 342.628 202.32C331.671 197.424 322.789 202.546 322.789 213.769C322.789 224.992 331.671 238.056 342.628 242.953Z" fill="url(#paint51_linear_1_793)"/>
<path class="setting" d="M328.661 87.807V79.1986L332.708 81.0104C333.158 79.2574 333.92 77.7492 334.92 76.5348L331.959 72.1866L337.93 68.7393L340.904 73.117C342.503 72.833 344.264 72.8721 346.138 73.2541V69.1115L354.546 72.8721V77.0147C356.42 78.3074 358.181 79.845 359.78 81.5588L362.754 79.845L368.725 88.6296L365.764 90.3336C366.776 92.449 367.526 94.6231 367.975 96.7874L372.023 98.5992V107.208L367.975 105.406C367.526 107.129 366.801 108.608 365.827 109.803L368.725 114.063L362.754 117.5L359.88 113.27C358.256 113.573 356.457 113.544 354.546 113.152V117.295L346.138 113.534V109.391C344.227 108.069 342.428 106.493 340.804 104.74L337.918 106.404L331.946 97.6297L334.845 95.955C333.87 93.8788 333.133 91.7439 332.696 89.6285L328.648 87.8265L328.661 87.807ZM350.348 103.045C355.658 105.415 359.968 102.938 359.968 97.5023C359.968 92.067 355.658 85.7308 350.348 83.3608C345.039 80.9908 340.729 83.4685 340.729 88.9038C340.729 94.3391 345.039 100.675 350.348 103.045Z" fill="url(#paint52_linear_1_793)"/>
</g>
</g>
</g>
</g>
<defs>
<linearGradient id="paint0_linear_1_793" x1="441.933" y1="270.482" x2="450.016" y2="270.482" gradientUnits="userSpaceOnUse">
<stop stop-color="#00DFE7"/>
<stop offset="0.07" stop-color="#16C6DF"/>
<stop offset="0.24" stop-color="#4296CF"/>
<stop offset="0.4" stop-color="#666EC2"/>
<stop offset="0.56" stop-color="#824FB8"/>
<stop offset="0.72" stop-color="#9639B1"/>
<stop offset="0.87" stop-color="#A22CAD"/>
<stop offset="1" stop-color="#A728AC"/>
</linearGradient>
<linearGradient id="paint1_linear_1_793" x1="446.168" y1="75.9766" x2="445.938" y2="253.432" gradientUnits="userSpaceOnUse">
<stop stop-color="#F03FFF" stop-opacity="0"/>
<stop offset="0.26" stop-color="#F36BFF" stop-opacity="0.16"/>
<stop offset="0.83" stop-color="#FCDBFF" stop-opacity="0.57"/>
<stop offset="1" stop-color="white" stop-opacity="0.7"/>
</linearGradient>
<linearGradient id="paint2_linear_1_793" x1="446.18" y1="53.8045" x2="445.935" y2="250.523" gradientUnits="userSpaceOnUse">
<stop stop-color="#F03FFF" stop-opacity="0"/>
<stop offset="0.26" stop-color="#B86AFF" stop-opacity="0.16"/>
<stop offset="0.83" stop-color="#2CD9FF" stop-opacity="0.57"/>
<stop offset="1" stop-color="#00FCFF" stop-opacity="0.7"/>
</linearGradient>
<linearGradient id="paint3_linear_1_793" x1="419.046" y1="226.422" x2="427.129" y2="226.422" gradientUnits="userSpaceOnUse">
<stop stop-color="#00DFE7"/>
<stop offset="0.07" stop-color="#16C6DF"/>
<stop offset="0.24" stop-color="#4296CF"/>
<stop offset="0.4" stop-color="#666EC2"/>
<stop offset="0.56" stop-color="#824FB8"/>
<stop offset="0.72" stop-color="#9639B1"/>
<stop offset="0.87" stop-color="#A22CAD"/>
<stop offset="1" stop-color="#A728AC"/>
</linearGradient>
<linearGradient id="paint4_linear_1_793" x1="423.281" y1="31.9164" x2="423.051" y2="209.372" gradientUnits="userSpaceOnUse">
<stop stop-color="#F03FFF" stop-opacity="0"/>
<stop offset="0.26" stop-color="#F36BFF" stop-opacity="0.16"/>
<stop offset="0.83" stop-color="#FCDBFF" stop-opacity="0.57"/>
<stop offset="1" stop-color="white" stop-opacity="0.7"/>
</linearGradient>
<linearGradient id="paint5_linear_1_793" x1="423.294" y1="9.74436" x2="423.048" y2="206.463" gradientUnits="userSpaceOnUse">
<stop stop-color="#F03FFF" stop-opacity="0"/>
<stop offset="0.26" stop-color="#B86AFF" stop-opacity="0.16"/>
<stop offset="0.83" stop-color="#2CD9FF" stop-opacity="0.57"/>
<stop offset="1" stop-color="#00FCFF" stop-opacity="0.7"/>
</linearGradient>
<linearGradient id="paint6_linear_1_793" x1="9.53674e-06" y1="292.478" x2="8.08286" y2="292.478" gradientUnits="userSpaceOnUse">
<stop stop-color="#00DFE7"/>
<stop offset="0.07" stop-color="#16C6DF"/>
<stop offset="0.24" stop-color="#4296CF"/>
<stop offset="0.4" stop-color="#666EC2"/>
<stop offset="0.56" stop-color="#824FB8"/>
<stop offset="0.72" stop-color="#9639B1"/>
<stop offset="0.87" stop-color="#A22CAD"/>
<stop offset="1" stop-color="#A728AC"/>
</linearGradient>
<linearGradient id="paint7_linear_1_793" x1="4.23502" y1="97.9626" x2="4.0047" y2="275.418" gradientUnits="userSpaceOnUse">
<stop stop-color="#F03FFF" stop-opacity="0"/>
<stop offset="0.26" stop-color="#F36BFF" stop-opacity="0.16"/>
<stop offset="0.83" stop-color="#FCDBFF" stop-opacity="0.57"/>
<stop offset="1" stop-color="white" stop-opacity="0.7"/>
</linearGradient>
<linearGradient id="paint8_linear_1_793" x1="4.24753" y1="75.7905" x2="3.99418" y2="272.509" gradientUnits="userSpaceOnUse">
<stop stop-color="#F03FFF" stop-opacity="0"/>
<stop offset="0.26" stop-color="#B86AFF" stop-opacity="0.16"/>
<stop offset="0.83" stop-color="#2CD9FF" stop-opacity="0.57"/>
<stop offset="1" stop-color="#00FCFF" stop-opacity="0.7"/>
</linearGradient>
<linearGradient id="paint9_linear_1_793" x1="180.046" y1="197.903" x2="12.3429" y2="197.903" gradientUnits="userSpaceOnUse">
<stop stop-color="#CE62FF" stop-opacity="0.6"/>
<stop offset="0.18" stop-color="#AF78F7" stop-opacity="0.66"/>
<stop offset="0.56" stop-color="#60B2E5" stop-opacity="0.81"/>
<stop offset="1" stop-color="#00FACF"/>
</linearGradient>
<linearGradient id="paint10_linear_1_793" x1="175.949" y1="90.03" x2="54.656" y2="90.03" gradientUnits="userSpaceOnUse">
<stop stop-color="#CE62FF" stop-opacity="0.6"/>
<stop offset="0.18" stop-color="#AF78F7" stop-opacity="0.66"/>
<stop offset="0.56" stop-color="#60B2E5" stop-opacity="0.81"/>
<stop offset="1" stop-color="#00FACF"/>
</linearGradient>
<linearGradient id="paint11_linear_1_793" x1="412.512" y1="89.0115" x2="214.364" y2="89.0115" gradientUnits="userSpaceOnUse">
<stop stop-color="#CE62FF" stop-opacity="0.6"/>
<stop offset="0.18" stop-color="#AF78F7" stop-opacity="0.66"/>
<stop offset="0.56" stop-color="#60B2E5" stop-opacity="0.81"/>
<stop offset="1" stop-color="#00FACF"/>
</linearGradient>
<linearGradient id="paint12_linear_1_793" x1="316.53" y1="49.4367" x2="274.067" y2="49.4367" gradientUnits="userSpaceOnUse">
<stop stop-color="#CE62FF" stop-opacity="0.6"/>
<stop offset="0.18" stop-color="#AF78F7" stop-opacity="0.66"/>
<stop offset="0.56" stop-color="#60B2E5" stop-opacity="0.81"/>
<stop offset="1" stop-color="#00FACF"/>
</linearGradient>
<linearGradient id="paint13_linear_1_793" x1="343.19" y1="63.8819" x2="273.093" y2="63.8819" gradientUnits="userSpaceOnUse">
<stop stop-color="#CE62FF" stop-opacity="0.6"/>
<stop offset="0.18" stop-color="#AF78F7" stop-opacity="0.66"/>
<stop offset="0.56" stop-color="#60B2E5" stop-opacity="0.81"/>
<stop offset="1" stop-color="#00FACF"/>
</linearGradient>
<linearGradient id="paint14_linear_1_793" x1="343.19" y1="74.3803" x2="273.093" y2="74.3803" gradientUnits="userSpaceOnUse">
<stop stop-color="#CE62FF" stop-opacity="0.6"/>
<stop offset="0.18" stop-color="#AF78F7" stop-opacity="0.66"/>
<stop offset="0.56" stop-color="#60B2E5" stop-opacity="0.81"/>
<stop offset="1" stop-color="#00FACF"/>
</linearGradient>
<linearGradient id="paint15_linear_1_793" x1="343.19" y1="84.8787" x2="273.093" y2="84.8787" gradientUnits="userSpaceOnUse">
<stop stop-color="#CE62FF" stop-opacity="0.6"/>
<stop offset="0.18" stop-color="#AF78F7" stop-opacity="0.66"/>
<stop offset="0.56" stop-color="#60B2E5" stop-opacity="0.81"/>
<stop offset="1" stop-color="#00FACF"/>
</linearGradient>
<radialGradient id="paint16_radial_1_793" cx="0" cy="0" r="1" gradientUnits="userSpaceOnUse" gradientTransform="translate(357.555 368.791) rotate(46.7149) scale(60.8354 63.542)">
<stop offset="0.17" stop-color="#FF8D7C"/>
<stop offset="1" stop-color="#972E93"/>
</radialGradient>
<linearGradient id="paint17_linear_1_793" x1="85.3758" y1="302.026" x2="419.346" y2="302.026" gradientUnits="userSpaceOnUse">
<stop offset="0.06" stop-color="#9F79B8"/>
<stop offset="0.26" stop-color="#A07BB9"/>
<stop offset="0.36" stop-color="#A782BF"/>
<stop offset="0.43" stop-color="#B28FC8"/>
<stop offset="0.49" stop-color="#C1A1D5"/>
<stop offset="0.51" stop-color="#C3A5D6"/>
<stop offset="0.52" stop-color="#CCB2DC"/>
<stop offset="0.53" stop-color="#DAC8E6"/>
<stop offset="0.55" stop-color="#EEE6F4"/>
<stop offset="0.56" stop-color="white"/>
<stop offset="0.57" stop-color="#EBDFF3"/>
<stop offset="0.58" stop-color="#DDC7EA"/>
<stop offset="0.59" stop-color="#D4B9E4"/>
<stop offset="0.6" stop-color="#D1B4E3"/>
<stop offset="0.66" stop-color="#B294D5"/>
<stop offset="0.72" stop-color="#9B7CCB"/>
<stop offset="0.77" stop-color="#8D6EC5"/>
<stop offset="0.81" stop-color="#8969C3"/>
<stop offset="1" stop-color="#B086CC"/>
</linearGradient>
<linearGradient id="paint18_linear_1_793" x1="78.2799" y1="295.161" x2="399.57" y2="295.161" gradientUnits="userSpaceOnUse">
<stop stop-color="#9F79C8"/>
<stop offset="0.14" stop-color="#A47FCA"/>
<stop offset="0.33" stop-color="#B491D3"/>
<stop offset="0.55" stop-color="#CDAFE1"/>
<stop offset="0.58" stop-color="#D1B4E3"/>
<stop offset="0.76" stop-color="#DAC3E8"/>
<stop offset="1" stop-color="#EBDEF3"/>
</linearGradient>
<linearGradient id="paint19_linear_1_793" x1="81.8653" y1="295.171" x2="395.972" y2="295.171" gradientUnits="userSpaceOnUse">
<stop stop-color="#CE62FF" stop-opacity="0.6"/>
<stop offset="0.18" stop-color="#AF78F7" stop-opacity="0.66"/>
<stop offset="0.56" stop-color="#60B2E5" stop-opacity="0.81"/>
<stop offset="1" stop-color="#00FACF"/>
</linearGradient>
<radialGradient id="paint20_radial_1_793" cx="0" cy="0" r="1" gradientUnits="userSpaceOnUse" gradientTransform="translate(279.068 372.072) rotate(-17.8562) scale(56.8999 31.1754)">
<stop stop-color="#972A74"/>
<stop offset="0.04" stop-color="#8A266A"/>
<stop offset="0.19" stop-color="#601A49"/>
<stop offset="0.35" stop-color="#3D112F"/>
<stop offset="0.51" stop-color="#22091A"/>
<stop offset="0.67" stop-color="#0F040B"/>
<stop offset="0.83" stop-color="#030102"/>
<stop offset="1"/>
</radialGradient>
<radialGradient id="paint21_radial_1_793" cx="0" cy="0" r="1" gradientUnits="userSpaceOnUse" gradientTransform="translate(183.664 255.81) rotate(-15.0892) scale(43.9865 21.209)">
<stop stop-color="#972A74"/>
<stop offset="0.04" stop-color="#8A266A"/>
<stop offset="0.19" stop-color="#601A49"/>
<stop offset="0.35" stop-color="#3D112F"/>
<stop offset="0.51" stop-color="#22091A"/>
<stop offset="0.67" stop-color="#0F040B"/>
<stop offset="0.83" stop-color="#030102"/>
<stop offset="1"/>
</radialGradient>
<linearGradient id="paint22_linear_1_793" x1="363.99" y1="287.473" x2="146.878" y2="287.473" gradientUnits="userSpaceOnUse">
<stop stop-color="#2A0C5C"/>
<stop offset="0.69" stop-color="#5F27BD"/>
<stop offset="1" stop-color="#B4299A"/>
</linearGradient>
<linearGradient id="paint23_linear_1_793" x1="214.726" y1="237.292" x2="271.458" y2="350.856" gradientUnits="userSpaceOnUse">
<stop stop-color="#CE62FF" stop-opacity="0.6"/>
<stop offset="0.18" stop-color="#AF78F7" stop-opacity="0.66"/>
<stop offset="0.56" stop-color="#60B2E5" stop-opacity="0.81"/>
<stop offset="1" stop-color="#00FACF"/>
</linearGradient>
<linearGradient id="paint24_linear_1_793" x1="95.0453" y1="56.5956" x2="358.285" y2="348.267" gradientUnits="userSpaceOnUse">
<stop stop-color="#9F79C8"/>
<stop offset="0.14" stop-color="#A27CC9"/>
<stop offset="0.27" stop-color="#AB87CE"/>
<stop offset="0.4" stop-color="#BB9AD7"/>
<stop offset="0.52" stop-color="#D1B4E3"/>
<stop offset="0.65" stop-color="#DAC3E8"/>
<stop offset="0.9" stop-color="#F3ECF8"/>
<stop offset="1" stop-color="white"/>
</linearGradient>
<linearGradient id="paint25_linear_1_793" x1="345.201" y1="332.003" x2="299.543" y2="85.4956" gradientUnits="userSpaceOnUse">
<stop stop-color="#2A0C5C"/>
<stop offset="0.69" stop-color="#5F27BD"/>
<stop offset="1" stop-color="#B4299A"/>
</linearGradient>
<linearGradient id="paint26_linear_1_793" x1="446.755" y1="310.86" x2="333.498" y2="80.0084" gradientUnits="userSpaceOnUse">
<stop offset="0.06" stop-color="#9F79B8"/>
<stop offset="0.26" stop-color="#A07BB9"/>
<stop offset="0.36" stop-color="#A782BF"/>
<stop offset="0.43" stop-color="#B28FC8"/>
<stop offset="0.49" stop-color="#C1A1D5"/>
<stop offset="0.51" stop-color="#C3A5D6"/>
<stop offset="0.52" stop-color="#CCB2DC"/>
<stop offset="0.53" stop-color="#DAC8E6"/>
<stop offset="0.55" stop-color="#EEE6F4"/>
<stop offset="0.56" stop-color="white"/>
<stop offset="0.57" stop-color="#EBDFF3"/>
<stop offset="0.58" stop-color="#DDC7EA"/>
<stop offset="0.59" stop-color="#D4B9E4"/>
<stop offset="0.6" stop-color="#D1B4E3"/>
<stop offset="0.61" stop-color="#CFB1E1"/>
<stop offset="0.76" stop-color="#BE99D5"/>
<stop offset="0.89" stop-color="#B38BCE"/>
<stop offset="1" stop-color="#B086CC"/>
</linearGradient>
<radialGradient id="paint27_radial_1_793" cx="0" cy="0" r="1" gradientUnits="userSpaceOnUse" gradientTransform="translate(399.87 184.418) scale(27.9214 21.8881)">
<stop stop-color="white"/>
<stop offset="1"/>
</radialGradient>
<radialGradient id="paint28_radial_1_793" cx="0" cy="0" r="1" gradientUnits="userSpaceOnUse" gradientTransform="translate(435.86 170.144) rotate(62.3355) scale(10.7184 8.27422)">
<stop stop-color="#972A74"/>
<stop offset="0.04" stop-color="#8A266A"/>
<stop offset="0.19" stop-color="#601A49"/>
<stop offset="0.35" stop-color="#3D112F"/>
<stop offset="0.51" stop-color="#22091A"/>
<stop offset="0.67" stop-color="#0F040B"/>
<stop offset="0.83" stop-color="#030102"/>
<stop offset="1"/>
</radialGradient>
<linearGradient id="paint29_linear_1_793" x1="-547.246" y1="-161.604" x2="-497.732" y2="-266.063" gradientUnits="userSpaceOnUse">
<stop stop-color="#00CAC5"/>
<stop offset="0.13" stop-color="#08BCC3" stop-opacity="0.93"/>
<stop offset="0.36" stop-color="#1F98BF" stop-opacity="0.73"/>
<stop offset="0.69" stop-color="#435EB8" stop-opacity="0.42"/>
<stop offset="1" stop-color="#6924B1" stop-opacity="0.1"/>
</linearGradient>
<linearGradient id="paint30_linear_1_793" x1="-585.094" y1="-185.726" x2="-545.183" y2="-269.924" gradientUnits="userSpaceOnUse">
<stop stop-color="#00CAC5"/>
<stop offset="0.14" stop-color="#09BAC3" stop-opacity="0.97"/>
<stop offset="0.4" stop-color="#2392BE" stop-opacity="0.9"/>
<stop offset="0.76" stop-color="#4B51B6" stop-opacity="0.78"/>
<stop offset="0.99" stop-color="#6924B1" stop-opacity="0.7"/>
</linearGradient>
<linearGradient id="paint31_linear_1_793" x1="-564.267" y1="-292.248" x2="-416.571" y2="-178.323" gradientUnits="userSpaceOnUse">
<stop stop-color="#00CAC5"/>
<stop offset="0.15" stop-color="#0AB9C3"/>
<stop offset="0.42" stop-color="#258EBD"/>
<stop offset="0.8" stop-color="#504AB5"/>
<stop offset="1" stop-color="#6924B1"/>
</linearGradient>
<linearGradient id="paint32_linear_1_793" x1="327.586" y1="132.993" x2="286.073" y2="132.993" gradientUnits="userSpaceOnUse">
<stop stop-color="#F03FFF" stop-opacity="0"/>
<stop offset="0.05" stop-color="#F14CEF" stop-opacity="0.06"/>
<stop offset="0.22" stop-color="#F574BE" stop-opacity="0.26"/>
<stop offset="0.39" stop-color="#F89597" stop-opacity="0.42"/>
<stop offset="0.56" stop-color="#FBAF78" stop-opacity="0.54"/>
<stop offset="0.72" stop-color="#FDC261" stop-opacity="0.63"/>
<stop offset="0.87" stop-color="#FECD54" stop-opacity="0.68"/>
<stop offset="1" stop-color="#FFD150" stop-opacity="0.7"/>
</linearGradient>
<linearGradient id="paint33_linear_1_793" x1="-480.044" y1="-180.477" x2="-471.503" y2="-173.888" gradientUnits="userSpaceOnUse">
<stop stop-color="#00CAC5"/>
<stop offset="0.13" stop-color="#08BCC3" stop-opacity="0.93"/>
<stop offset="0.36" stop-color="#1F98BF" stop-opacity="0.73"/>
<stop offset="0.69" stop-color="#435EB8" stop-opacity="0.42"/>
<stop offset="1" stop-color="#6924B1" stop-opacity="0.1"/>
</linearGradient>
<linearGradient id="paint34_linear_1_793" x1="-447.424" y1="-165.015" x2="-438.89" y2="-158.432" gradientUnits="userSpaceOnUse">
<stop stop-color="#00CAC5"/>
<stop offset="0.13" stop-color="#08BCC3" stop-opacity="0.93"/>
<stop offset="0.36" stop-color="#1F98BF" stop-opacity="0.73"/>
<stop offset="0.69" stop-color="#435EB8" stop-opacity="0.42"/>
<stop offset="1" stop-color="#6924B1" stop-opacity="0.1"/>
</linearGradient>
<linearGradient id="paint35_linear_1_793" x1="-497.538" y1="-177.833" x2="-488.997" y2="-171.245" gradientUnits="userSpaceOnUse">
<stop stop-color="#00CAC5"/>
<stop offset="0.13" stop-color="#08BCC3" stop-opacity="0.93"/>
<stop offset="0.36" stop-color="#1F98BF" stop-opacity="0.73"/>
<stop offset="0.69" stop-color="#435EB8" stop-opacity="0.42"/>
<stop offset="1" stop-color="#6924B1" stop-opacity="0.1"/>
</linearGradient>
<linearGradient id="paint36_linear_1_793" x1="-464.926" y1="-162.376" x2="-456.385" y2="-155.788" gradientUnits="userSpaceOnUse">
<stop stop-color="#00CAC5"/>
<stop offset="0.13" stop-color="#08BCC3" stop-opacity="0.93"/>
<stop offset="0.36" stop-color="#1F98BF" stop-opacity="0.73"/>
<stop offset="0.69" stop-color="#435EB8" stop-opacity="0.42"/>
<stop offset="1" stop-color="#6924B1" stop-opacity="0.1"/>
</linearGradient>
<linearGradient id="paint37_linear_1_793" x1="-526.349" y1="-180.556" x2="-508.118" y2="-166.494" gradientUnits="userSpaceOnUse">
<stop stop-color="#00CAC5"/>
<stop offset="0.13" stop-color="#08BCC3" stop-opacity="0.93"/>
<stop offset="0.36" stop-color="#1F98BF" stop-opacity="0.73"/>
<stop offset="0.69" stop-color="#435EB8" stop-opacity="0.42"/>
<stop offset="1" stop-color="#6924B1" stop-opacity="0.1"/>
</linearGradient>
<linearGradient id="paint38_linear_1_793" x1="-482.42" y1="-159.734" x2="-473.879" y2="-153.146" gradientUnits="userSpaceOnUse">
<stop stop-color="#00CAC5"/>
<stop offset="0.13" stop-color="#08BCC3" stop-opacity="0.93"/>
<stop offset="0.36" stop-color="#1F98BF" stop-opacity="0.73"/>
<stop offset="0.69" stop-color="#435EB8" stop-opacity="0.42"/>
<stop offset="1" stop-color="#6924B1" stop-opacity="0.1"/>
</linearGradient>
<linearGradient id="paint39_linear_1_793" x1="-532.525" y1="-172.549" x2="-507.628" y2="-153.345" gradientUnits="userSpaceOnUse">
<stop stop-color="#00CAC5"/>
<stop offset="0.13" stop-color="#08BCC3" stop-opacity="0.93"/>
<stop offset="0.36" stop-color="#1F98BF" stop-opacity="0.73"/>
<stop offset="0.69" stop-color="#435EB8" stop-opacity="0.42"/>
<stop offset="1" stop-color="#6924B1" stop-opacity="0.1"/>
</linearGradient>
<linearGradient id="paint40_linear_1_793" x1="-499.914" y1="-157.091" x2="-491.373" y2="-150.503" gradientUnits="userSpaceOnUse">
<stop stop-color="#00CAC5"/>
<stop offset="0.13" stop-color="#08BCC3" stop-opacity="0.93"/>
<stop offset="0.36" stop-color="#1F98BF" stop-opacity="0.73"/>
<stop offset="0.69" stop-color="#435EB8" stop-opacity="0.42"/>
<stop offset="1" stop-color="#6924B1" stop-opacity="0.1"/>
</linearGradient>
<linearGradient id="paint41_linear_1_793" x1="-483.604" y1="-149.369" x2="-475.063" y2="-142.781" gradientUnits="userSpaceOnUse">
<stop stop-color="#00CAC5"/>
<stop offset="0.13" stop-color="#08BCC3" stop-opacity="0.93"/>
<stop offset="0.36" stop-color="#1F98BF" stop-opacity="0.73"/>
<stop offset="0.69" stop-color="#435EB8" stop-opacity="0.42"/>
<stop offset="1" stop-color="#6924B1" stop-opacity="0.1"/>
</linearGradient>
<linearGradient id="paint42_linear_1_793" x1="-473.64" y1="-221.387" x2="-421.408" y2="-181.098" gradientUnits="userSpaceOnUse">
<stop stop-color="#00CAC5"/>
<stop offset="0.13" stop-color="#08BCC3" stop-opacity="0.93"/>
<stop offset="0.36" stop-color="#1F98BF" stop-opacity="0.73"/>
<stop offset="0.69" stop-color="#435EB8" stop-opacity="0.42"/>
<stop offset="1" stop-color="#6924B1" stop-opacity="0.1"/>
</linearGradient>
<linearGradient id="paint43_linear_1_793" x1="-479.494" y1="-213.798" x2="-427.261" y2="-173.509" gradientUnits="userSpaceOnUse">
<stop offset="0.01" stop-color="#4934FF"/>
<stop offset="0.19" stop-color="#3F37FA" stop-opacity="0.95"/>
<stop offset="0.54" stop-color="#253FED" stop-opacity="0.81"/>
<stop offset="1" stop-color="#004BDB" stop-opacity="0.6"/>
</linearGradient>
<linearGradient id="paint44_linear_1_793" x1="-485.353" y1="-206.201" x2="-433.121" y2="-165.912" gradientUnits="userSpaceOnUse">
<stop stop-color="#00CAC5"/>
<stop offset="0.13" stop-color="#08BCC3" stop-opacity="0.93"/>
<stop offset="0.36" stop-color="#1F98BF" stop-opacity="0.73"/>
<stop offset="0.69" stop-color="#435EB8" stop-opacity="0.42"/>
<stop offset="1" stop-color="#6924B1" stop-opacity="0.1"/>
</linearGradient>
<linearGradient id="paint45_linear_1_793" x1="-182.199" y1="-52.1296" x2="-181.458" y2="-51.5577" gradientUnits="userSpaceOnUse">
<stop offset="0.01" stop-color="#4934FF"/>
<stop offset="0.19" stop-color="#3F37FA" stop-opacity="0.95"/>
<stop offset="0.54" stop-color="#253FED" stop-opacity="0.81"/>
<stop offset="1" stop-color="#004BDB" stop-opacity="0.6"/>
</linearGradient>
<linearGradient id="paint46_linear_1_793" x1="-560.692" y1="-290.552" x2="-553.722" y2="-285.177" gradientUnits="userSpaceOnUse">
<stop stop-color="#00CAC5"/>
<stop offset="0.13" stop-color="#08BCC3" stop-opacity="0.93"/>
<stop offset="0.36" stop-color="#1F98BF" stop-opacity="0.73"/>
<stop offset="0.69" stop-color="#435EB8" stop-opacity="0.42"/>
<stop offset="1" stop-color="#6924B1" stop-opacity="0.1"/>
</linearGradient>
<linearGradient id="paint47_linear_1_793" x1="-549.58" y1="-285.286" x2="-542.618" y2="-279.916" gradientUnits="userSpaceOnUse">
<stop stop-color="#00CAC5"/>
<stop offset="0.13" stop-color="#08BCC3" stop-opacity="0.93"/>
<stop offset="0.36" stop-color="#1F98BF" stop-opacity="0.73"/>
<stop offset="0.69" stop-color="#435EB8" stop-opacity="0.42"/>
<stop offset="1" stop-color="#6924B1" stop-opacity="0.1"/>
</linearGradient>
<linearGradient id="paint48_linear_1_793" x1="-538.817" y1="-280.184" x2="-531.848" y2="-274.809" gradientUnits="userSpaceOnUse">
<stop stop-color="#00CAC5"/>
<stop offset="0.13" stop-color="#08BCC3" stop-opacity="0.93"/>
<stop offset="0.36" stop-color="#1F98BF" stop-opacity="0.73"/>
<stop offset="0.69" stop-color="#435EB8" stop-opacity="0.42"/>
<stop offset="1" stop-color="#6924B1" stop-opacity="0.1"/>
</linearGradient>
<linearGradient id="paint49_linear_1_793" x1="-609.304" y1="-200.961" x2="-574.787" y2="-273.78" gradientUnits="userSpaceOnUse">
<stop stop-color="#F03FFF" stop-opacity="0"/>
<stop offset="0.05" stop-color="#F14CEF" stop-opacity="0.06"/>
<stop offset="0.22" stop-color="#F574BE" stop-opacity="0.26"/>
<stop offset="0.39" stop-color="#F89597" stop-opacity="0.42"/>
<stop offset="0.56" stop-color="#FBAF78" stop-opacity="0.54"/>
<stop offset="0.72" stop-color="#FDC261" stop-opacity="0.63"/>
<stop offset="0.87" stop-color="#FECD54" stop-opacity="0.68"/>
<stop offset="1" stop-color="#FFD150" stop-opacity="0.7"/>
</linearGradient>
<linearGradient id="paint50_linear_1_793" x1="-556.456" y1="-175.911" x2="-542.948" y2="-204.408" gradientUnits="userSpaceOnUse">
<stop offset="0.01" stop-color="#4934FF"/>
<stop offset="0.19" stop-color="#3F37FA" stop-opacity="0.95"/>
<stop offset="0.54" stop-color="#253FED" stop-opacity="0.81"/>
<stop offset="1" stop-color="#004BDB" stop-opacity="0.6"/>
</linearGradient>
<linearGradient id="paint51_linear_1_793" x1="385.253" y1="222.455" x2="297.566" y2="222.455" gradientUnits="userSpaceOnUse">
<stop stop-color="#F03FFF" stop-opacity="0"/>
<stop offset="0.05" stop-color="#F14CEF" stop-opacity="0.06"/>
<stop offset="0.22" stop-color="#F574BE" stop-opacity="0.26"/>
<stop offset="0.39" stop-color="#F89597" stop-opacity="0.42"/>
<stop offset="0.56" stop-color="#FBAF78" stop-opacity="0.54"/>
<stop offset="0.72" stop-color="#FDC261" stop-opacity="0.63"/>
<stop offset="0.87" stop-color="#FECD54" stop-opacity="0.68"/>
<stop offset="1" stop-color="#FFD150" stop-opacity="0.7"/>
</linearGradient>
<linearGradient id="paint52_linear_1_793" x1="370.999" y1="93.1149" x2="328.511" y2="93.1149" gradientUnits="userSpaceOnUse">
<stop stop-color="#F03FFF" stop-opacity="0"/>
<stop offset="0.05" stop-color="#F14CEF" stop-opacity="0.06"/>
<stop offset="0.22" stop-color="#F574BE" stop-opacity="0.26"/>
<stop offset="0.39" stop-color="#F89597" stop-opacity="0.42"/>
<stop offset="0.56" stop-color="#FBAF78" stop-opacity="0.54"/>
<stop offset="0.72" stop-color="#FDC261" stop-opacity="0.63"/>
<stop offset="0.87" stop-color="#FECD54" stop-opacity="0.68"/>
<stop offset="1" stop-color="#FFD150" stop-opacity="0.7"/>
</linearGradient>
</defs>
</svg>
